<?xml version="1.0" standalone="no"?>
<!DOCTYPE svg PUBLIC "-//W3C//DTD SVG 20010904//EN"
 "http://www.w3.org/TR/2001/REC-SVG-20010904/DTD/svg10.dtd">
<svg version="1.0" xmlns="http://www.w3.org/2000/svg"
 width="640.000000pt" height="480.000000pt" viewBox="0 0 640.000000 480.000000"
 preserveAspectRatio="xMidYMid meet">

<g transform="translate(0.000000,480.000000) scale(0.100000,-0.100000)"
fill="#000000" stroke="none">
<path d="M0 4500 l0 -300 3200 0 3200 0 0 300 0 300 -3200 0 -3200 0 0 -300z"/>
<path d="M1509 4114 c-74 -80 -300 -261 -449 -361 -258 -172 -651 -371 -937
-473 l-63 -23 0 -1298 0 -1299 2080 0 2079 0 88 70 c494 397 1277 769 1936
920 l97 22 0 1234 0 1234 -2403 0 -2404 0 -24 -26z m209 -881 c-16 -2 -40 -2
-55 0 -16 2 -3 4 27 4 30 0 43 -2 28 -4z m-110 -10 c-10 -2 -28 -2 -40 0 -13
2 -5 4 17 4 22 1 32 -1 23 -4z m284 -12 c201 -52 379 -178 492 -348 46 -71
102 -191 92 -200 -2 -2 -7 6 -11 19 -15 49 -78 163 -119 217 -129 167 -311
278 -514 315 -43 8 -63 15 -46 15 17 1 65 -8 106 -18z m-500 -9 l27 -18 -19
-32 c-20 -32 -55 -43 -76 -22 -6 6 -30 -3 -69 -26 -198 -120 -345 -338 -385
-572 -6 -35 -8 -40 -9 -17 -2 46 36 171 76 249 73 148 187 274 310 346 45 26
59 39 55 53 -5 21 24 57 47 57 9 0 28 -8 43 -18z m141 11 c-7 -2 -19 -2 -25 0
-7 3 -2 5 12 5 14 0 19 -2 13 -5z m-58 -13 c-11 -5 -27 -9 -35 -9 -9 0 -8 4 5
9 11 5 27 9 35 9 9 0 8 -4 -5 -9z m340 -49 c-3 -6 -11 -8 -17 -5 -6 4 -5 9 3
15 16 10 23 4 14 -10z m118 -27 c-3 -7 -10 -12 -16 -11 -18 3 -27 21 -15 28
17 11 38 -1 31 -17z m-195 -41 c-26 -2 -71 -2 -100 0 -29 2 -8 3 47 3 55 0 79
-1 53 -3z m-159 -7 c-2 -2 -22 -6 -44 -9 -28 -5 -34 -4 -20 3 19 8 73 14 64 6z
m254 -3 c-7 -2 -21 -2 -30 0 -10 3 -4 5 12 5 17 0 24 -2 18 -5z m94 -24 c32
-12 63 -26 68 -32 7 -7 4 -7 -10 -2 -11 4 -47 18 -80 31 -33 13 -55 23 -48 23
7 1 38 -9 70 -20z m-452 1 c-27 -12 -43 -12 -25 0 8 5 22 9 30 9 10 0 8 -3 -5
-9z m-100 -43 c-82 -44 -101 -58 -173 -130 -97 -95 -156 -202 -187 -342 -8
-34 -14 -48 -14 -33 -3 78 78 252 162 353 57 67 223 185 262 185 6 0 -17 -15
-50 -33z m276 0 c-13 -13 -26 -3 -16 12 3 6 11 8 17 5 6 -4 6 -10 -1 -17z
m500 -95 c68 -62 139 -157 169 -227 31 -72 19 -64 -18 13 -56 114 -145 210
-278 300 -10 7 1 3 24 -10 24 -12 70 -47 103 -76z m-513 21 c-10 -2 -26 -2
-35 0 -10 3 -2 5 17 5 19 0 27 -2 18 -5z m140 0 c-10 -2 -28 -2 -40 0 -13 2
-5 4 17 4 22 1 32 -1 23 -4z m-248 -22 c-158 -51 -277 -159 -341 -310 -16 -36
-29 -60 -29 -52 0 8 15 46 34 85 41 84 116 171 186 216 59 38 156 80 185 79
11 0 -5 -8 -35 -18z m400 -24 c46 -22 91 -56 152 -117 48 -47 94 -90 101 -97
8 -6 13 -22 10 -36 -4 -19 -10 -23 -29 -19 -36 7 -51 29 -35 54 11 17 8 25
-24 63 -67 82 -160 145 -268 180 -38 13 -39 14 -7 8 19 -3 64 -19 100 -36z
m1158 -87 c66 -188 132 -378 132 -382 0 -2 -26 -2 -57 -2 l-58 2 -15 53 -16
54 -81 3 -81 3 -17 -56 c-17 -53 -19 -55 -54 -56 -20 0 -44 -2 -53 -4 -10 -2
-18 0 -18 5 0 4 37 115 81 245 l82 236 61 -3 61 -3 33 -95z m512 89 c65 -14
133 -75 149 -134 19 -70 14 -164 -13 -222 -44 -94 -115 -121 -298 -115 l-88 3
0 239 0 240 100 0 c54 0 122 -5 150 -11z m410 -229 l0 -240 -50 0 -50 0 0 240
0 240 50 0 50 0 0 -240z m520 195 l0 -45 -70 0 -70 0 0 -195 c0 -123 -4 -195
-10 -196 -5 -1 -26 -1 -45 -1 -19 0 -39 0 -45 1 -6 1 -10 73 -10 196 l0 195
-65 0 -65 0 0 45 0 45 190 0 190 0 0 -45z m265 -50 c28 -52 53 -95 57 -95 3 0
28 43 55 95 l48 95 58 0 c31 0 57 -2 57 -4 0 -2 -38 -73 -85 -157 l-85 -153 0
-86 0 -85 -49 3 -49 4 -4 91 c-4 91 -5 93 -62 192 -32 55 -69 121 -82 148
l-24 47 57 0 58 0 50 -95z m625 3 c17 -51 54 -155 81 -231 27 -76 49 -145 49
-152 0 -7 -8 -12 -17 -10 -10 2 -35 4 -55 4 -36 1 -37 3 -54 56 l-18 55 -80 0
-81 0 -17 -58 -17 -57 -55 0 c-31 0 -56 0 -56 1 0 5 162 468 166 475 3 5 31 9
63 9 l58 0 33 -92z m-3664 -164 c-39 -51 -46 -78 -18 -70 9 3 29 8 45 12 15 3
32 14 37 23 5 9 10 11 10 4 0 -6 -18 -26 -40 -43 -49 -39 -52 -57 -5 -29 30
18 44 20 110 14 66 -7 78 -5 97 11 21 19 21 19 9 -3 -15 -30 -25 -35 -95 -47
-32 -6 -61 -17 -64 -23 -2 -7 2 -13 10 -13 7 -1 25 -11 40 -23 l27 -22 -52 2
-52 2 35 -12 c49 -17 61 -26 100 -75 19 -24 46 -50 60 -58 l25 -13 -29 -1
c-16 0 -43 12 -65 29 -34 26 -81 55 -81 49 0 -2 7 -28 15 -58 l14 -55 -30 38
c-39 48 -52 48 -28 0 16 -32 18 -50 13 -111 -6 -63 -4 -75 12 -94 19 -21 19
-21 -2 -10 -33 18 -42 34 -49 95 -4 31 -11 60 -16 62 -12 8 -62 -72 -53 -86 4
-7 3 -9 -4 -5 -7 4 -8 27 -5 61 4 39 2 55 -6 55 -7 0 -10 -4 -6 -10 12 -19
-24 -78 -69 -115 -26 -21 -53 -50 -61 -64 l-14 -26 -1 31 c0 21 11 46 35 75
19 24 35 50 35 56 0 15 -55 7 -87 -13 -19 -12 -22 -12 -17 0 3 7 16 19 30 27
23 12 52 49 39 49 -3 0 -17 -7 -31 -16 -31 -21 -214 -27 -207 -7 6 14 64 33
103 33 53 1 54 16 3 49 l-48 32 51 -7 c34 -4 54 -2 58 5 5 7 -4 11 -26 11 -27
0 -42 11 -93 64 -33 35 -69 66 -80 69 -11 3 -4 5 17 6 25 1 45 -6 65 -23 27
-22 66 -46 76 -46 8 0 -13 83 -25 97 -7 9 -7 13 0 13 6 0 20 -15 31 -34 12
-19 28 -37 36 -40 20 -7 19 3 -2 27 -15 16 -18 35 -15 107 2 70 -1 91 -13 104
-9 9 -12 16 -6 16 25 0 49 -40 56 -91 11 -83 18 -87 53 -34 l31 47 -6 -52 c-6
-56 9 -65 20 -13 8 36 12 41 70 87 26 21 51 50 55 65 7 26 7 26 10 -6 2 -25
-5 -44 -32 -79z m-106 61 c0 -8 -6 -15 -14 -15 -17 0 -28 14 -19 24 12 12 33
6 33 -9z m230 -59 c0 -21 -21 -31 -30 -15 -5 7 -6 17 -4 21 9 14 34 9 34 -6z
m635 -141 l4 -60 -9 58 c-5 32 -14 75 -20 95 -15 55 -10 64 6 12 8 -25 16 -72
19 -105z m-156 65 c0 -9 -4 -8 -9 5 -5 11 -9 27 -9 35 0 9 4 8 9 -5 5 -11 9
-27 9 -35z m-919 14 c0 -14 -21 -19 -33 -7 -9 9 13 34 24 27 5 -3 9 -12 9 -20z
m779 -59 c0 -11 -7 0 -15 25 -17 56 -17 64 1 25 8 -16 14 -39 14 -50z m148 -7
c-3 -7 -5 -2 -5 12 0 14 2 19 5 13 2 -7 2 -19 0 -25z m-1210 -20 c-3 -7 -5 -2
-5 12 0 14 2 19 5 13 2 -7 2 -19 0 -25z m1070 -45 c-3 -10 -5 -2 -5 17 0 19 2
27 5 18 2 -10 2 -26 0 -35z m150 -110 c-2 -32 -3 -8 -3 52 0 61 1 87 3 58 2
-29 2 -78 0 -110z m-1520 15 c-2 -24 -4 -5 -4 42 0 47 2 66 4 43 2 -24 2 -62
0 -85z m290 -11 c-2 -23 -3 -1 -3 48 0 50 1 68 3 42 2 -26 2 -67 0 -90z m-150
11 c-2 -24 -4 -7 -4 37 0 44 2 63 4 43 2 -21 2 -57 0 -80z m1001 75 c-4 -22
-22 -20 -26 1 -2 10 3 16 13 16 10 0 15 -7 13 -17z m-618 -76 c0 -19 -10 -27
-26 -20 -21 8 -17 33 6 33 11 0 20 -6 20 -13z m-437 -14 c-6 -15 -29 -17 -37
-4 -8 12 3 20 24 18 10 -1 16 -7 13 -14z m1284 -40 c-3 -10 -5 -2 -5 17 0 19
2 27 5 18 2 -10 2 -26 0 -35z m290 -5 c-2 -13 -4 -5 -4 17 -1 22 1 32 4 23 2
-10 2 -28 0 -40z m-1622 -135 c9 -32 37 -96 61 -143 98 -192 259 -329 474
-407 38 -13 50 -21 30 -17 -52 9 -194 78 -265 128 -169 121 -316 361 -330 540
l-4 51 8 -47 c5 -25 17 -73 26 -105z m144 3 c7 -16 9 -31 7 -33 -7 -8 -46 126
-45 156 0 14 7 -1 14 -34 7 -33 18 -73 24 -89z m1431 124 c-7 -5 -9 -13 -5
-20 5 -9 4 -11 -4 -6 -6 4 -18 3 -25 -3 -9 -8 -12 -6 -11 7 2 29 14 40 36 35
14 -4 17 -8 9 -13z m-1302 -50 c0 -9 -3 -7 -8 5 -5 11 -8 29 -8 40 0 16 2 15
8 -5 4 -14 8 -32 8 -40z m1049 18 c-3 -8 -6 -5 -6 6 -1 11 2 17 5 13 3 -3 4
-12 1 -19z m134 -66 c-12 -37 -28 -78 -37 -92 -10 -16 -13 -18 -8 -5 37 101
54 153 55 170 0 11 3 14 6 7 3 -7 -5 -43 -16 -80z m149 7 c-17 -68 -23 -57 -8
15 7 32 14 53 16 47 2 -7 -2 -34 -8 -62z m-322 -46 c-46 -96 -151 -201 -249
-248 -40 -19 -83 -35 -94 -35 -11 1 3 8 30 18 131 45 239 141 301 267 21 44
40 77 42 73 2 -3 -12 -37 -30 -75z m661 -40 c-1 -109 1 -119 21 -135 28 -23
62 -23 90 0 21 17 23 27 24 133 l1 114 33 3 32 3 0 -111 c0 -132 -13 -170 -67
-195 -54 -26 -127 -16 -165 22 -29 30 -30 31 -33 156 l-4 127 35 0 34 0 -1
-117z m402 18 c38 -52 72 -98 78 -104 6 -6 9 27 9 94 l0 104 26 3 26 3 0 -155
0 -156 -27 0 c-24 1 -39 16 -98 101 l-70 101 -3 -100 -3 -100 -29 -4 -30 -5 0
159 0 159 27 -3 c21 -2 42 -23 94 -97z m289 -56 l0 -155 -30 0 -30 0 0 155 0
155 30 0 30 0 0 -155z m148 88 c11 -38 28 -95 37 -128 l18 -60 13 40 c7 22 25
79 39 128 l26 87 34 0 34 0 -52 -155 -52 -154 -42 -1 -41 0 -48 143 c-26 78
-49 148 -52 155 -3 8 7 12 31 12 35 0 35 -1 55 -67z m464 61 c3 -3 4 -14 1
-25 -5 -16 -14 -19 -74 -19 l-69 0 0 -40 0 -40 70 0 c68 0 70 -1 70 -25 0 -24
-2 -25 -71 -25 l-70 0 3 -42 3 -43 70 0 c66 0 70 -1 70 -22 0 -13 -3 -23 -7
-23 -5 0 -51 0 -103 0 l-95 0 0 155 0 155 98 0 c54 0 101 -3 104 -6z m294 -27
c33 -39 33 -95 -2 -136 l-26 -31 30 -55 30 -55 -36 1 c-34 0 -39 4 -63 52 -22
44 -31 52 -58 55 l-31 3 0 -55 c0 -56 0 -56 -30 -56 l-30 0 0 156 0 156 96 -4
c91 -3 97 -5 120 -31z m305 4 c16 -16 29 -37 29 -45 0 -25 -46 -19 -74 9 -30
30 -56 32 -87 6 -35 -29 -16 -52 61 -73 84 -23 102 -40 98 -96 -4 -64 -37 -87
-123 -87 -53 0 -68 4 -88 23 -14 13 -27 32 -30 43 -4 15 0 19 22 19 16 0 36
-9 46 -20 24 -26 92 -24 109 3 18 29 -6 51 -75 69 -101 26 -130 88 -70 149 26
26 36 29 91 29 55 0 65 -3 91 -29z m169 -125 l0 -154 -25 -4 c-13 -3 -27 -3
-30 0 -3 3 -5 74 -5 159 l0 153 30 0 30 0 0 -154z m310 129 c0 -23 -4 -25 -45
-25 l-45 0 0 -130 0 -130 -30 0 -30 0 0 130 0 130 -50 0 c-47 0 -50 2 -50 25
l0 25 125 0 125 0 0 -25z m148 -43 c18 -34 38 -60 43 -56 5 3 23 32 39 65 27
52 34 59 60 59 17 0 30 -3 30 -6 0 -3 -23 -47 -51 -97 -46 -83 -51 -97 -50
-149 l2 -58 -35 0 -36 0 0 61 c0 55 -5 70 -50 150 -27 49 -50 91 -50 94 0 4
15 5 33 3 28 -3 36 -11 65 -66z m-4129 -65 c42 -62 112 -127 183 -169 75 -46
65 -51 -12 -6 -99 56 -213 191 -234 278 -3 14 3 6 14 -18 11 -23 33 -62 49
-85z m701 109 c0 -20 -19 -31 -32 -18 -6 6 -7 15 -4 21 10 16 36 13 36 -3z
m-440 -61 c0 -8 -9 -15 -20 -15 -11 0 -20 7 -20 15 0 8 9 15 20 15 11 0 20 -7
20 -15z m960 -66 c-67 -169 -210 -327 -380 -417 -73 -39 -196 -83 -229 -81 -9
0 14 9 51 19 250 72 455 252 548 482 13 32 25 56 27 54 2 -2 -6 -28 -17 -57z
m-1366 24 c4 -9 2 -21 -3 -26 -28 -28 148 -217 261 -281 35 -20 59 -36 54 -36
-15 0 -98 51 -156 96 -59 46 -117 111 -151 168 -11 19 -29 38 -40 41 -18 6
-26 35 -12 48 12 13 41 7 47 -10z m1184 -75 c-13 -24 -59 -79 -103 -123 -66
-66 -97 -89 -175 -127 -103 -51 -211 -78 -309 -78 -72 0 -194 22 -241 44 -19
9 -26 13 -15 10 79 -25 167 -15 191 21 19 29 12 75 -12 75 -12 0 -12 3 -2 13
10 11 18 5 43 -32 49 -70 72 -67 128 19 16 25 26 36 22 25 -5 -11 -10 -36 -13
-56 -3 -30 1 -40 25 -58 35 -28 80 -23 168 18 112 53 244 173 294 269 6 12 14
22 17 22 3 0 -5 -19 -18 -42z m-1011 -71 c0 -8 -5 -14 -12 -14 -6 0 -16 6 -23
14 -10 11 -8 13 11 13 13 0 24 -6 24 -13z m298 -89 c13 -5 9 -6 -15 -2 -19 4
-42 10 -50 15 -18 11 34 1 65 -13z m163 -7 c19 -11 11 -45 -11 -49 -19 -4 -32
20 -23 43 6 17 15 19 34 6z m-130 -59 c3 -18 -1 -22 -22 -22 -19 0 -26 5 -26
18 0 39 43 43 48 4z m277 3 c0 -22 -31 -33 -47 -17 -17 17 -1 44 24 40 15 -2
23 -10 23 -23z m-342 -222 c-7 -2 -19 -2 -25 0 -7 3 -2 5 12 5 14 0 19 -2 13
-5z m75 -10 c-10 -2 -28 -2 -40 0 -13 2 -5 4 17 4 22 1 32 -1 23 -4z m210 0
c-10 -2 -28 -2 -40 0 -13 2 -5 4 17 4 22 1 32 -1 23 -4z m-100 -10 c-16 -2
-40 -2 -55 0 -16 2 -3 4 27 4 30 0 43 -2 28 -4z"/>
<path d="M2987 2770 c-11 -26 -47 -142 -47 -151 0 -5 23 -9 50 -9 59 0 60 2
26 105 -14 43 -26 64 -29 55z"/>
<path d="M3457 2803 c-3 -5 -4 -73 -3 -153 l1 -145 59 3 c33 2 68 8 78 13 36
19 58 70 58 134 0 73 -25 120 -75 141 -36 15 -111 19 -118 7z"/>
<path d="M5301 2710 c-12 -38 -24 -76 -27 -85 -5 -12 4 -15 51 -15 49 0 56 2
51 18 -3 9 -15 47 -26 85 -11 37 -22 67 -24 67 -2 0 -14 -31 -25 -70z"/>
<path d="M1618 2494 c-59 -32 -76 -121 -33 -172 51 -61 128 -66 179 -13 96
100 -24 252 -146 185z m100 -93 l32 -58 -28 5 c-15 3 -22 7 -15 9 9 3 8 13 -4
39 -9 19 -19 34 -23 34 -3 0 -14 -14 -24 -31 -15 -26 -16 -33 -5 -40 8 -5 12
-9 9 -10 -3 0 -15 -2 -27 -5 -13 -2 -23 -2 -23 1 0 11 62 115 69 115 3 0 21
-26 39 -59z"/>
<path d="M4282 2128 c3 -50 5 -53 31 -55 65 -5 103 38 77 86 -9 17 -20 21 -61
21 l-50 0 3 -52z"/>
<path d="M0 300 l0 -300 3200 0 3200 0 0 300 0 300 -3200 0 -3200 0 0 -300z"/>
</g>
</svg>
